<svg viewBox="0 0 330 200" xmlns="http://www.w3.org/2000/svg"><g><g><g><g><g><line x1="51.53200149536133" y1="176.89999961853027" x2="46.53200149536133" y2="176.89999961853027" style="visibility: inherit;" fill="rgb(0, 0, 0)" stroke="rgb(200, 195, 188)" stroke-width="1px"></line><line x1="51.53200149536133" y1="159.20999965667727" x2="46.53200149536133" y2="159.20999965667727" style="visibility: inherit;" fill="rgb(0, 0, 0)" stroke="rgb(200, 195, 188)" stroke-width="1px"></line><line x1="51.53200149536133" y1="141.51999969482424" x2="46.53200149536133" y2="141.51999969482424" style="visibility: inherit;" fill="rgb(0, 0, 0)" stroke="rgb(200, 195, 188)" stroke-width="1px"></line><line x1="51.53200149536133" y1="123.82999973297122" x2="46.53200149536133" y2="123.82999973297122" style="visibility: inherit;" fill="rgb(0, 0, 0)" stroke="rgb(200, 195, 188)" stroke-width="1px"></line><line x1="51.53200149536133" y1="106.13999977111818" x2="46.53200149536133" y2="106.13999977111818" style="visibility: inherit;" fill="rgb(0, 0, 0)" stroke="rgb(200, 195, 188)" stroke-width="1px"></line><line x1="51.53200149536133" y1="88.44999980926514" x2="46.53200149536133" y2="88.44999980926514" style="visibility: inherit;" fill="rgb(0, 0, 0)" stroke="rgb(200, 195, 188)" stroke-width="1px"></line><line x1="51.53200149536133" y1="70.75999984741213" x2="46.53200149536133" y2="70.75999984741213" style="visibility: inherit;" fill="rgb(0, 0, 0)" stroke="rgb(200, 195, 188)" stroke-width="1px"></line><line x1="51.53200149536133" y1="53.06999988555909" x2="46.53200149536133" y2="53.06999988555909" style="visibility: inherit;" fill="rgb(0, 0, 0)" stroke="rgb(200, 195, 188)" stroke-width="1px"></line><line x1="51.53200149536133" y1="35.37999992370609" x2="46.53200149536133" y2="35.37999992370609" style="visibility: inherit;" fill="rgb(0, 0, 0)" stroke="rgb(200, 195, 188)" stroke-width="1px"></line><line x1="51.53200149536133" y1="17.689999961853044" x2="46.53200149536133" y2="17.689999961853044" style="visibility: inherit;" fill="rgb(0, 0, 0)" stroke="rgb(200, 195, 188)" stroke-width="1px"></line><line x1="51.53200149536133" y1="0" x2="46.53200149536133" y2="0" style="visibility: inherit;" fill="rgb(0, 0, 0)" stroke="rgb(200, 195, 188)" stroke-width="1px"></line></g><g transform="translate(41.53200149536133, 0)"><text style="text-anchor: end; visibility: hidden; font-family: Roboto, sans-serif; font-size: 12px; font-weight: 200;" x="0" y="176.89999961853027" dx="0em" dy="0.3em" fill="rgb(232, 230, 227)" stroke="none" stroke-width="1px">0.55</text><text style="text-anchor: end; visibility: inherit; font-family: Roboto, sans-serif; font-size: 12px; font-weight: 200;" x="0" y="159.20999965667727" dx="0em" dy="0.3em" fill="rgb(232, 230, 227)" stroke="none" stroke-width="1px">0.6</text><text style="text-anchor: end; visibility: hidden; font-family: Roboto, sans-serif; font-size: 12px; font-weight: 200;" x="0" y="141.51999969482424" dx="0em" dy="0.3em" fill="rgb(232, 230, 227)" stroke="none" stroke-width="1px">0.65</text><text style="text-anchor: end; visibility: inherit; font-family: Roboto, sans-serif; font-size: 12px; font-weight: 200;" x="0" y="123.82999973297122" dx="0em" dy="0.3em" fill="rgb(232, 230, 227)" stroke="none" stroke-width="1px">0.7</text><text style="text-anchor: end; visibility: hidden; font-family: Roboto, sans-serif; font-size: 12px; font-weight: 200;" x="0" y="106.13999977111818" dx="0em" dy="0.3em" fill="rgb(232, 230, 227)" stroke="none" stroke-width="1px">0.75</text><text style="text-anchor: end; visibility: inherit; font-family: Roboto, sans-serif; font-size: 12px; font-weight: 200;" x="0" y="88.44999980926514" dx="0em" dy="0.3em" fill="rgb(232, 230, 227)" stroke="none" stroke-width="1px">0.8</text><text style="text-anchor: end; visibility: hidden; font-family: Roboto, sans-serif; font-size: 12px; font-weight: 200;" x="0" y="70.75999984741213" dx="0em" dy="0.3em" fill="rgb(232, 230, 227)" stroke="none" stroke-width="1px">0.85</text><text style="text-anchor: end; visibility: inherit; font-family: Roboto, sans-serif; font-size: 12px; font-weight: 200;" x="0" y="53.06999988555909" dx="0em" dy="0.3em" fill="rgb(232, 230, 227)" stroke="none" stroke-width="1px">0.9</text><text style="text-anchor: end; visibility: hidden; font-family: Roboto, sans-serif; font-size: 12px; font-weight: 200;" x="0" y="35.37999992370609" dx="0em" dy="0.3em" fill="rgb(232, 230, 227)" stroke="none" stroke-width="1px">0.95</text><text style="text-anchor: end; visibility: inherit; font-family: Roboto, sans-serif; font-size: 12px; font-weight: 200;" x="0" y="17.689999961853044" dx="0em" dy="0.3em" fill="rgb(232, 230, 227)" stroke="none" stroke-width="1px">1</text><text style="text-anchor: end; visibility: hidden; font-family: Roboto, sans-serif; font-size: 12px; font-weight: 200;" x="0" y="0" dx="0em" dy="0.3em" fill="rgb(232, 230, 227)" stroke="none" stroke-width="1px">1.05</text></g><line x1="51.53200149536133" y1="0" x2="51.53200149536133" y2="176.89999961853027" fill="rgb(0, 0, 0)" stroke="rgb(200, 195, 188)" stroke-width="1px"></line></g></g><g transform="translate(51, 0)" clip-path="url(#clip_0)"><clipPath id="clip_0"><rect width="278" height="176"></rect></clipPath><g><g><g><line x1="0" y1="0" x2="0" y2="176.89999961853027" fill="rgb(0, 0, 0)" stroke="rgb(194, 189, 181)" stroke-width="1px" opacity="0.25"></line><line x1="25.31527259133079" y1="0" x2="25.31527259133079" y2="176.89999961853027" fill="rgb(0, 0, 0)" stroke="rgb(194, 189, 181)" stroke-width="1px" opacity="0.25"></line><line x1="50.63054518266158" y1="0" x2="50.63054518266158" y2="176.89999961853027" fill="rgb(0, 0, 0)" stroke="rgb(194, 189, 181)" stroke-width="1px" opacity="0.25"></line><line x1="75.94581777399236" y1="0" x2="75.94581777399236" y2="176.89999961853027" fill="rgb(0, 0, 0)" stroke="rgb(194, 189, 181)" stroke-width="1px" opacity="0.25"></line><line x1="101.26109036532316" y1="0" x2="101.26109036532316" y2="176.89999961853027" fill="rgb(0, 0, 0)" stroke="rgb(194, 189, 181)" stroke-width="1px" opacity="0.25"></line><line x1="126.57636295665394" y1="0" x2="126.57636295665394" y2="176.89999961853027" fill="rgb(0, 0, 0)" stroke="rgb(194, 189, 181)" stroke-width="1px" opacity="0.25"></line><line x1="151.89163554798472" y1="0" x2="151.89163554798472" y2="176.89999961853027" fill="rgb(0, 0, 0)" stroke="rgb(194, 189, 181)" stroke-width="1px" opacity="0.25"></line><line x1="177.20690813931552" y1="0" x2="177.20690813931552" y2="176.89999961853027" fill="rgb(0, 0, 0)" stroke="rgb(194, 189, 181)" stroke-width="1px" opacity="0.25"></line><line x1="202.5221807306463" y1="0" x2="202.5221807306463" y2="176.89999961853027" fill="rgb(0, 0, 0)" stroke="rgb(194, 189, 181)" stroke-width="1px" opacity="0.25"></line><line x1="227.8374533219771" y1="0" x2="227.8374533219771" y2="176.89999961853027" fill="rgb(0, 0, 0)" stroke="rgb(194, 189, 181)" stroke-width="1px" opacity="0.25"></line><line x1="253.15272591330788" y1="0" x2="253.15272591330788" y2="176.89999961853027" fill="rgb(0, 0, 0)" stroke="rgb(194, 189, 181)" stroke-width="1px" opacity="0.25"></line><line x1="278.4679985046387" y1="0" x2="278.4679985046387" y2="176.89999961853027" fill="rgb(0, 0, 0)" stroke="rgb(194, 189, 181)" stroke-width="1px" opacity="0.25"></line></g><g><line x1="0" y1="176.89999961853027" x2="278.4679985046387" y2="176.89999961853027" fill="rgb(0, 0, 0)" stroke="rgb(194, 189, 181)" stroke-width="1px" opacity="0.25"></line><line x1="0" y1="159.20999965667727" x2="278.4679985046387" y2="159.20999965667727" fill="rgb(0, 0, 0)" stroke="rgb(194, 189, 181)" stroke-width="1px" opacity="0.25"></line><line x1="0" y1="141.51999969482424" x2="278.4679985046387" y2="141.51999969482424" fill="rgb(0, 0, 0)" stroke="rgb(194, 189, 181)" stroke-width="1px" opacity="0.25"></line><line x1="0" y1="123.82999973297122" x2="278.4679985046387" y2="123.82999973297122" fill="rgb(0, 0, 0)" stroke="rgb(194, 189, 181)" stroke-width="1px" opacity="0.25"></line><line x1="0" y1="106.13999977111818" x2="278.4679985046387" y2="106.13999977111818" fill="rgb(0, 0, 0)" stroke="rgb(194, 189, 181)" stroke-width="1px" opacity="0.25"></line><line x1="0" y1="88.44999980926514" x2="278.4679985046387" y2="88.44999980926514" fill="rgb(0, 0, 0)" stroke="rgb(194, 189, 181)" stroke-width="1px" opacity="0.25"></line><line x1="0" y1="70.75999984741213" x2="278.4679985046387" y2="70.75999984741213" fill="rgb(0, 0, 0)" stroke="rgb(194, 189, 181)" stroke-width="1px" opacity="0.25"></line><line x1="0" y1="53.06999988555909" x2="278.4679985046387" y2="53.06999988555909" fill="rgb(0, 0, 0)" stroke="rgb(194, 189, 181)" stroke-width="1px" opacity="0.25"></line><line x1="0" y1="35.37999992370609" x2="278.4679985046387" y2="35.37999992370609" fill="rgb(0, 0, 0)" stroke="rgb(194, 189, 181)" stroke-width="1px" opacity="0.25"></line><line x1="0" y1="17.689999961853044" x2="278.4679985046387" y2="17.689999961853044" fill="rgb(0, 0, 0)" stroke="rgb(194, 189, 181)" stroke-width="1px" opacity="0.25"></line><line x1="0" y1="0" x2="278.4679985046387" y2="0" fill="rgb(0, 0, 0)" stroke="rgb(194, 189, 181)" stroke-width="1px" opacity="0.25"></line></g></g></g><g><g><line x1="0" y1="371.4899991989136" x2="278.4679985046387" y2="371.4899991989136" fill="rgb(0, 0, 0)" stroke="rgb(168, 160, 149)" stroke-width="1.5px"></line></g></g><g><g><line x1="25.31527259133079" y1="0" x2="25.31527259133079" y2="176.89999961853027" fill="rgb(0, 0, 0)" stroke="rgb(168, 160, 149)" stroke-width="1.5px"></line></g></g><g><g><g><g><g><path style="fill: none;" stroke="rgb(51, 187, 238)" stroke-width="2px" d="M25.770947497974742,161.42124965190888L26.505090403123337,90.59214824214575L26.884819491993298,60.448354461485025L26.910134764584626,45.879372603270966L27.922745668237862,33.652892449984186L28.024006758603182,28.114983785706997L29.46697729630904,24.962362021153034L29.669499477039682,22.00372343027856L30.150489656274967,21.377548641358544L31.11247001474554,19.893556033736807L32.454179462086074,19.008924186685807L35.08696781158447,18.48020358709079L35.492012173045765,18.16370877280297L35.82111071673307,17.974076644791033L36.37804671374234,17.860392519046936L36.605884167064325,17.792216262898208L37.0868743462996,17.7513228205864L37.34002707221291,18.832528481909034L38.22606161290949,18.375489223754276L38.808312882510094,19.206948916093292L39.390564152110706,18.600156023211483L39.54245578765869,18.236088806753344L40.352544510581275,18.017651543728178L44.656140851107516,17.886590289959916L44.934608849612154,17.807953935151726L46.681362658413974,17.76077226534897L46.7066779310053,17.732463314976595L46.73199320359663,17.715477963296586L46.7826237487793,17.705286758964164L46.80793902137063,17.699172038767912L46.934515384327284,17.69550320751532L46.95983065691861,17.693301909075213L47.035776474692604,17.691981130123246L47.06109174728394,17.69118866279247L47.08640701987527,17.690713182408537L47.13703756505792,17.690427894183376L47.21298338283192,17.69025672125017L47.33955974578858,17.690154017490965L47.41550556356257,17.690092395235663L47.51676665392789,17.69005542188257L47.542081926519224,17.69003323787077L47.64334301688454,17.690019927463634L47.66865828947588,17.6900119412194L47.69397356206721,17.690007149472862L47.719288834658535,17.690004274424943L47.7699193798412,17.690002549396215L47.99775683316317,17.690001514378963L48.0230721057545,17.690000893368587L48.149648468711156,17.690000520762386L48.20027901389383,17.69000029719861L48.25090955907648,17.69000016306039L48.30154010425914,17.690000082577445L48.32685537685048,17.69000003428766L48.402801194624466,17.69000000531382L48.428116467215794,17.689999987929493L48.52937755758112,17.68999997749889L48.55469283017245,17.689999971240574L48.655953920537776,17.689999967485555L48.681269193129104,17.68999996523255L48.70658446572043,17.68999996388078L48.78253028349443,17.689999963069692L48.95973719163374,17.689999962583055L49.010367736816406,17.68999996229105L49.03568300940774,17.689999962115863L49.13694409977306,17.689999962010752L49.187574644955724,17.689999961947628L49.23820519013838,17.689999961909802L49.288835735321044,17.6899999618871L49.31415100791238,17.68999996187347L49.33946628050371,17.689999961865258L49.39009682568637,17.689999961860348L49.44072737086903,17.689999961857442L49.46604264346036,17.689999961855676L49.49135791605169,17.689999961854653L49.541988461234354,17.689999961854024L49.64324955159968,17.689999961853633L49.87108700492165,17.689999961853395L49.92171755010432,17.68999996185324L49.9976633678783,17.68999996185316L50.20018554860896,17.689999961853122L50.25081609379161,17.689999961853083L50.27613136638294,17.689999961853083L50.30144663897427,17.689999961853083L50.32676191156561,17.689999961853083L50.35207718415694,17.689999961853083L50.45333827452227,17.689999961853083L50.579914637478915,17.689999961853083L50.60522991007025,17.689999961853083L50.63054518266158,17.689999961853083L50.655860455252906,17.689999961853083L50.70649100043557,17.689999961853083L50.85838263598355,17.689999961853083L50.88369790857489,17.689999961853083L50.95964372634887,17.689999961853083L51.0609048167142,17.689999961853083L51.08622008930553,17.689999961853083L51.13685063448819,17.689999961853083L51.23811172485352,17.689999961853083L51.3900033604015,17.689999961853083L51.49126445076683,17.689999961853083L51.541894995949484,17.689999961853083L51.56721026854081,17.689999961853083L51.59252554113215,17.689999961853083L51.7191019040888,17.689999961853083L51.82036299445412,17.689999961853083L51.84567826704545,17.689999961853083L52.14946153814143,17.689999961853083L52.17477681073276,17.689999961853083L52.20009208332409,17.689999961853083L52.225407355915415,17.689999961853083L52.32666844628074,17.689999961853083L52.3772989914634,17.689999961853083L52.42792953664607,17.689999961853083L52.478560081828725,17.689999961853083L52.50387535442005,17.689999961853083L52.52919062701138,17.689999961853083L52.57982117219405,17.689999961853083L52.63045171737671,17.689999961853083L52.68108226255937,17.689999961853083L52.7063975351507,17.689999961853083L52.75702808033336,17.689999961853083L52.832973898107355,17.689999961853083L52.95955026106401,17.689999961853083L53.01018080624667,17.689999961853083L53.162072441794656,17.689999961853083L53.187387714385984,17.689999961853083L53.21270298697732,17.689999961853083L53.23801825956865,17.689999961853083L53.31396407734264,17.689999961853083L53.339279349933975,17.689999961853083L53.38990989511663,17.689999961853083L53.46585571289063,17.689999961853083L53.516486258073286,17.689999961853083L53.59243207584728,17.689999961853083L53.66837789362127,17.689999961853083L53.74432371139527,17.689999961853083L53.82026952916925,17.689999961853083L53.92153061953458,17.689999961853083L53.99747643730858,17.689999961853083L54.022791709899906,17.689999961853083L54.07342225508256,17.689999961853083L54.17468334544789,17.689999961853083L54.275944435813216,17.689999961853083L54.3518902535872,17.689999961853083L54.402520798769864,17.689999961853083L54.45315134395253,17.689999961853083L54.478466616543855,17.689999961853083L54.57972770690918,17.689999961853083L54.63035825209184,17.689999961853083L54.6809887972745,17.689999961853083L54.731619342457165,17.689999961853083L54.78224988763982,17.689999961853083L54.85819570541382,17.689999961853083L54.88351097800515,17.689999961853083L54.93414152318781,17.689999961853083L54.95945679577914,17.689999961853083L54.984772068370475,17.689999961853083L55.03540261355313,17.689999961853083L55.18729424910112,17.689999961853083L55.23792479428378,17.689999961853083L55.28855533946644,17.689999961853083L55.36450115724043,17.689999961853083L55.516392792788416,17.689999961853083L55.693599700927734,17.689999961853083L55.7442302461104,17.689999961853083L55.794860791293054,17.689999961853083L55.82017606388438,17.689999961853083L55.89612188165838,17.689999961853083L55.99738297202371,17.689999961853083L56.048013517206364,17.689999961853083L56.09864406238902,17.689999961853083L56.17458988016302,17.689999961853083L56.25053569793702,17.689999961853083L56.301166243119674,17.689999961853083L56.377112060893666,17.689999961853083L56.45305787866766,17.689999961853083L56.63026478680697,17.689999961853083L56.655580059398304,17.689999961853083L56.70621060458097,17.689999961853083L56.75684114976362,17.689999961853083L56.88341751272028,17.689999961853083L56.93404805790294,17.689999961853083L56.984678603085605,17.689999961853083L57.00999387567693,17.689999961853083L57.161885511224924,17.689999961853083L57.21251605640758,17.689999961853083L57.28846187418158,17.689999961853083L57.31377714677291,17.689999961853083L57.36440769195556,17.689999961853083L57.61756041786887,17.689999961853083L57.74413678082553,17.689999961853083L57.794767326008184,17.689999961853083L57.845397871190855,17.689999961853083L57.89602841637351,17.689999961853083L57.92134368896484,17.689999961853083L57.99728950673884,17.689999961853083L58.07323532451282,17.689999961853083L58.12386586969549,17.689999961853083L58.17449641487815,17.689999961853083L58.301072777834804,17.689999961853083L58.45296441338279,17.689999961853083L58.528910231156786,17.689999961853083L58.554225503748114,17.689999961853083L58.57954077633944,17.689999961853083L58.60485604893077,17.689999961853083L58.68080186670477,17.689999961853083L58.83269350225275,17.689999961853083L59.08584622816606,17.689999961853083L59.136476773348726,17.689999961853083L59.21242259112271,17.689999961853083L59.338998954079365,17.689999961853083L59.3643142266707,17.689999961853083L59.38962949926203,17.689999961853083L59.51620586221868,17.689999961853083L59.56683640740135,17.689999961853083L59.693412770358,17.689999961853083L59.769358588131986,17.689999961853083L59.845304405905985,17.689999961853083L59.99719604145397,18.795624959468874L60.022511314045296,18.353374960422556L60.047826586636624,18.08802496099475L60.25034876736728,17.928814961338052L60.32629458514127,17.83328896154405L60.42755567550659,17.775973361667646L60.45287094809792,17.741584001741796L60.50350149328059,18.8265753834021L60.528816765871916,18.371945214782478L60.60476258364591,18.099167113610697L60.65539312882857,17.935500252907644L60.6807084014199,17.837300136485787L60.75665421919389,17.778380066632696L60.807284764376554,17.743028024720836L60.83260003696788,17.721816799573734L60.98449167251587,17.70909006448544L61.0098069451072,17.701454023432497L61.08575276288119,17.696872398800718L61.18701385324651,17.69412342402164L61.26295967102051,17.69247403915419L61.31359021620317,17.691484408233716L61.338905488794495,17.690890629681462L61.36422076138583,17.69053436255011L61.389536033977166,17.690320602271267L61.592058214707805,17.690192346103995L61.61737348729913,17.69011539240363L61.642688759890476,17.69006922018341L61.71863457766446,17.690041516851263L61.74394985025579,17.690024894851977L61.79458039543846,17.69001492165241L61.845210940621115,17.690008937732664L61.87052621321244,17.6900053473808L61.89584148580377,17.69000319316968L61.97178730357777,17.690001900643026L62.022417848760426,17.690001125127047L62.17430948430842,17.69000065981744L62.19962475689975,17.690000380631695L62.300885847265064,17.690000213120236L62.351516392447735,17.690000112613365L62.62998439095237,17.69000005230922L62.68061493613503,17.690000016126735L62.781876026500356,17.689999994417242L62.807191299091684,17.689999981391548L62.85782184427435,17.689999973576146L62.93376766204834,17.689999968886898L63.00971347982233,17.68999996607337L63.060344025004994,17.689999964385247L63.136289842778986,17.689999963372383L63.21223566055298,17.689999962764645L63.49070365905762,17.689999962400012L64.07295492865822,17.689999962181226L64.22484656420622,17.689999962049953L64.35142292716287,17.689999961971196L64.42736874493686,17.68999996192394L64.52862983530218,17.689999961895584L64.65520619825884,17.689999961878573L64.83241310639815,17.689999961868363L64.85772837898948,17.689999961862235L65.0349352871288,17.689999961858543L65.11088110490279,17.689999961856344L65.13619637749412,17.68999996185501L65.18682692267679,17.689999961854223L65.41466437599875,17.68999996185375L65.54124073895541,17.689999961853474L65.66781710191206,17.689999961853317L65.79439346486872,17.6899999618532L65.89565455523405,17.689999961853122L66.30069891669534,17.689999961853083L66.351329461878,17.689999961853083L66.40196000706065,17.689999961853083L66.45259055224332,17.689999961853083L66.47790582483465,17.689999961853083L66.50322109742598,17.689999961853083L66.57916691519998,17.689999961853083L66.70574327815662,17.689999961853083L66.78168909593062,17.689999961853083L67.06015709443525,17.689999961853083L67.08547236702658,17.689999961853083L67.28799454775724,17.689999961853083L67.36394036553122,17.689999961853083L67.49051672848788,17.689999961853083L67.51583200107922,17.689999961853083L67.54114727367055,17.689999961853083L67.79429999958386,17.689999961853083L67.92087636254051,17.689999961853083L67.97150690772317,17.689999961853083L68.02213745290582,17.689999961853083L89.43885806517167,17.689999961853083L89.464173337763,17.689999961853083L89.56543442812833,17.689999961853083L89.84390242663297,17.689999961853083L89.89453297181564,17.689999961853083L90.14768569772895,17.689999961853083L90.35020787845959,17.689999961853083L90.42615369623358,17.689999961853083L90.55273005919022,17.689999961853083L90.6033606043729,17.689999961853083L90.67930642214688,18.795624959468874L90.72993696732955,18.353374960422556L90.90714387546886,18.08802496099475L91.10966605619952,17.928814961338052L91.33750350952148,17.83328896154405L91.69191732580012,17.775973361667646L91.71723259839145,17.741584001741796L91.79317841616543,17.72095038578631L91.81849368875676,17.708570216213005L92.19822277762674,17.70114211446903L92.22353805021807,17.696685253422633L92.37542968576604,17.69401113679478L92.40074495835738,17.692406666818094L92.42606023094872,17.69144398483208L92.47669077613138,17.690866375640468L92.5020060487227,17.69051981012548L92.52732132131403,17.690311870816515L92.65389768427067,17.690187107231125L92.70452822945336,17.6901122490799L92.90705041018398,17.69006733418914L92.93236568277531,17.69004038525472L93.10957259091464,17.69002421589404L93.18551840868862,17.69001451427763L93.2361489538713,17.690008693307796L93.4133558620106,17.69000520072591L93.43867113460193,17.69000310517677L93.46398640719326,17.690001847847274L93.64119331533259,17.690001093449588L93.79308495088057,17.69000064081098L93.81840022347191,17.69000036922782L93.8943460412459,17.690000206277908L93.91966131383722,17.69000010850797L93.97029185901988,17.69000004984599L94.32470567529852,17.690000014648795L94.4765973108465,17.689999993530503L94.62848894639448,17.689999980859504L95.03353330785578,17.68999997325692L95.08416385303845,17.689999968695368L95.21074021599509,17.68999996595844L95.26137076117776,17.68999996431627L95.5398387596824,17.68999996333098L95.56515403227372,17.689999962739822L95.74236094041304,17.689999962385127L95.81830675818703,17.68999996217231L96.12209002928302,17.68999996204461L96.32461221001364,17.689999961967974L96.40055802778765,17.68999996192202L96.47650384556164,17.689999961894443L96.5271343907443,17.689999961877866L96.57776493592695,17.68999996186793L96.83091766184026,17.68999996186196L96.98280929738826,17.689999961858383L97.2612772958929,17.689999961856262L97.41316893144086,17.68999996185497L98.14731183658947,17.68999996185418L98.19794238177212,17.68999996185371L98.2485729269548,17.689999961853434L98.27388819954612,17.689999961853278L98.34983401732012,17.6899999618532L98.4257798350941,17.689999961853122L98.45109510768543,17.689999961853083L98.78019365137274,17.689999961853083L98.95740055951205,17.689999961853083L99.15992274024269,17.689999961853083L99.564967101704,17.689999961853083L99.59028237429533,17.689999961853083L99.76748928243464,17.689999961853083L100.17253364389593,17.689999961853083L100.29911000685257,17.689999961853083L100.45100164240057,17.689999961853083L100.60289327794854,17.689999961853083L100.67883909572255,17.689999961853083L100.70415436831388,17.689999961853083L100.75478491349654,17.689999961853083L100.78010018608786,17.689999961853083L100.83073073127052,17.689999961853083L100.93199182163586,17.689999961853083L101.3876667282798,17.689999961853083L101.48892781864514,17.689999961853083L101.56487363641912,17.689999961853083L101.76739581714978,17.689999961853083L101.89397218010642,17.689999961853083L101.96991799788042,17.689999961853083L102.1218096334284,17.689999961853083L102.14712490601973,17.689999961853083L102.37496235934171,17.689999961853083L102.40027763193304,17.689999961853083L102.47622344970704,17.689999961853083L102.50153872229836,17.689999961853083L102.52685399488969,17.689999961853083L102.62811508525502,17.689999961853083L102.72937617562035,17.689999961853083L102.780006720803,17.689999961853083L102.85595253857699,17.689999961853083L103.00784417412498,17.689999961853083L103.28631217262962,17.689999961853083L103.41288853558626,17.689999961853083L103.6913565340909,17.689999961853083L103.71667180668223,17.689999961853083L103.74198707927357,17.689999961853083L103.76730235186491,17.689999961853083L103.86856344223023,17.689999961853083L103.94450926000421,17.689999961853083L103.99513980518687,17.689999961853083L104.72928271033547,17.689999961853083L104.7545979829268,17.689999961853083L104.83054380070078,17.689999961853083L104.85585907329214,17.689999961853083L105.18495761697943,17.689999961853083L105.28621870734474,17.689999961853083L105.3368492525274,17.689999961853083L105.76720888658004,17.689999961853083L105.81783943176269,17.689999961853083L106.34946015618064,17.689999961853083L106.42540597395464,17.689999961853083L106.67855869986795,17.689999961853083L106.75450451764193,17.689999961853083L106.77981979023326,17.689999961853083L106.93171142578126,17.689999961853083L107.0582877887379,17.689999961853083L107.10891833392056,17.689999961853083L107.23549469687723,17.689999961853083L107.7924306938865,17.689999961853083L107.91900705684314,17.689999961853083L108.02026814720848,17.689999961853083L108.09621396498247,17.689999961853083L108.47594305385242,17.689999961853083L108.75441105235706,17.689999961853083L108.83035687013107,17.689999961853083L108.98224850567904,17.689999961853083L109.361977594549,17.689999961853083L109.69107613823631,17.689999961853083L109.8429677737843,17.689999961853083L109.89359831896695,17.689999961853083L110.17206631747159,17.689999961853083L110.22269686265425,17.689999961853083L110.3492732256109,17.689999961853083L110.39990377079357,17.689999961853083L110.60242595152421,17.689999961853083L110.67837176929821,17.689999961853083L110.70368704188954,17.689999961853083L132.17103819933806,17.689999961853083L132.29761456229468,17.689999961853083L132.3735603800687,17.689999961853083L132.77860474153,17.689999961853083L132.85455055930396,17.689999961853083L133.00644219485196,17.689999961853083L133.31022546594792,17.689999961853083L133.33554073853927,17.689999961853083L133.36085601113058,17.689999961853083L133.4368018289046,17.689999961853083L133.66463928222655,17.689999961853083L133.91779200813986,17.689999961853083L133.99373782591385,17.689999961853083L134.14562946146185,17.689999961853083L134.22157527923582,17.689999961853083L134.3481516421925,17.689999961853083L134.47472800514913,17.689999961853083L134.75319600365378,17.689999961853083L134.87977236661044,17.689999961853083L134.95571818438444,17.689999961853083L135.20887091029775,17.689999961853083L135.76580690730702,17.689999961853083L135.81643745248968,17.689999961853083L135.84175272508102,17.689999961853083L135.917698542855,17.689999961853083L136.04427490581165,17.689999961853083L136.22148181395096,17.689999961853083L136.29742763172496,17.689999961853083L136.37337344949896,17.689999961853083L136.47463453986427,17.689999961853083L136.77841781096024,17.689999961853083L136.87967890132558,17.689999961853083L137.00625526428223,17.689999961853083L137.1328316272389,17.689999961853083L137.18346217242154,17.689999961853083L137.25940799019554,17.689999961853083L137.3353538079695,17.689999961853083L137.84165925979613,17.689999961853083L138.1454425308921,17.689999961853083L138.24670362125744,17.689999961853083L138.27201889384878,17.689999961853083L138.49985634717075,17.689999961853083L138.57580216494475,17.689999961853083L138.65174798271872,17.689999961853083L138.80363961826671,17.689999961853083L138.93021598122337,17.689999961853083L139.6896741589633,17.689999961853083L139.94282688487658,17.689999961853083L140.12003379301592,17.689999961853083L140.17066433819858,17.689999961853083L140.2719254285639,17.689999961853083L140.29724070115523,17.689999961853083L140.5250781544772,17.689999961853083L140.5503934270685,17.689999961853083L140.57570869965988,17.689999961853083L140.62633924484254,17.689999961853083L140.80354615298185,17.689999961853083L141.0820141514865,17.689999961853083L141.13264469666916,17.689999961853083L141.20859051444313,17.689999961853083L141.25922105962582,17.689999961853083L141.56300433072175,17.689999961853083L141.6136348759044,17.689999961853083L141.68958069367844,17.689999961853083L141.71489596626975,17.689999961853083L141.7655265114524,17.689999961853083L142.01867923736572,17.689999961853083L142.09462505513972,17.689999961853083L142.27183196327903,17.689999961853083L142.34777778105303,17.689999961853083L142.37309305364437,17.689999961853083L142.42372359882702,17.689999961853083L142.44903887141834,17.689999961853083L142.55029996178365,17.689999961853083L142.62624577955765,17.689999961853083L142.65156105214902,17.689999961853083L142.70219159733168,17.689999961853083L142.85408323287965,17.689999961853083L143.41101922988892,17.689999961853083L143.53759559284558,17.689999961853083L143.76543304616757,17.689999961853083L143.7907483187589,17.689999961853083L144.0692163172635,17.689999961853083L144.11984686244617,17.689999961853083L144.39831486095082,17.689999961853083L144.44894540613348,17.689999961853083L144.5502064964988,17.689999961853083L144.67678285945544,17.689999961853083L144.70209813204679,17.689999961853083L144.90462031277744,17.689999961853083L145.25903412905606,17.689999961853083L145.46155630978672,17.689999961853083L145.56281740015203,17.689999961853083L145.61344794533468,17.689999961853083L145.63876321792603,17.689999961853083L145.66407849051734,17.689999961853083L145.74002430829134,17.689999961853083L145.76533958088268,17.689999961853083L145.91723121643068,17.689999961853083L146.018492306796,17.689999961853083L146.1956992149353,17.689999961853083L146.22101448752662,17.689999961853083L146.27164503270927,17.689999961853083L146.29696030530062,17.689999961853083L146.32227557789196,17.689999961853083L146.34759085048327,17.689999961853083L146.4235366682573,17.689999961853083L146.55011303121393,17.689999961853083L146.65137412157927,17.689999961853083L146.70200466676192,17.689999961853083L146.72731993935324,17.689999961853083L146.75263521194458,17.689999961853083L146.90452684749258,17.689999961853083L147.13236430081454,17.689999961853083L147.2589406637712,17.689999961853083L147.30957120895386,17.689999961853083L147.66398502523248,17.689999961853083L147.71461557041513,17.689999961853083L147.76524611559782,17.689999961853083L147.8411919333718,17.689999961853083L147.9930835689198,17.689999961853083L148.01839884151113,17.689999961853083L148.14497520446778,17.689999961853083L148.44875847556372,17.689999961853083L148.4740737481551,17.689999961853083L148.67659592888572,17.689999961853083L148.72722647406837,17.689999961853083L148.75254174665972,17.689999961853083L148.80317229184237,17.689999961853083L149.00569447257303,17.689999961853083L149.08164029034702,17.689999961853083L149.10695556293834,17.689999961853083L149.15758610812102,17.689999961853083L149.25884719848634,17.689999961853083L149.28416247107765,17.689999961853083L149.3347930162603,17.689999961853083L149.537315196991,17.689999961853083L149.5626304695823,17.689999961853083L149.68920683253896,17.689999961853083L149.7398373777216,17.689999961853083L149.79046792290427,17.689999961853083L149.96767483104358,17.689999961853083L150.19551228436558,17.689999961853083L150.24614282954823,17.689999961853083L150.27145810213958,17.689999961853083L150.3727191925049,17.689999961853083L150.54992610064417,17.689999961853083L150.57524137323554,17.689999961853083L150.7018177361922,17.689999961853083L150.8030788265575,17.689999961853083L150.98028573469682,17.689999961853083L151.0562315524708,17.689999961853083L151.08154682506213,17.689999961853083L151.10686209765345,17.689999961853083L151.30938427838413,17.689999961853083L151.84100500280206,17.689999961853083L151.99289663835006,17.689999961853083L152.09415772871537,17.689999961853083L152.47388681758534,17.689999961853083L152.524517362768,17.689999961853083L152.57514790795065,17.689999961853083L152.65109372572465,17.689999961853083L152.70172427090733,17.689999961853083L152.75235481609,17.689999961853083L152.7776700886813,17.689999961853083L152.80298536127265,17.689999961853083L152.828300633864,17.689999961853083L152.8536159064553,17.689999961853083L152.87893117904665,17.689999961853083L152.98019226941196,17.689999961853083L153.15739917755127,17.689999961853083L153.33460608569058,17.689999961853083L175.18168633200906,17.689999961853083L175.20700160460038,17.689999961853083L175.28294742237438,17.689999961853083L175.38420851273972,17.689999961853083L175.66267651124434,17.689999961853083L175.713307056427,17.689999961853083L175.76393760160965,17.689999961853083L176.09303614529696,17.689999961853083L176.1183514178883,17.689999961853083L176.19429723566228,17.689999961853083L176.27024305343627,17.689999961853083L176.32087359861893,17.689999961853083L176.42213468898424,17.689999961853083L176.47276523416693,17.689999961853083L176.52339577934958,17.689999961853083L176.64997214230624,17.689999961853083L177.0043859585849,17.689999961853083L177.05501650376755,17.689999961853083L177.13096232154152,17.689999961853083L177.20690813931552,17.689999961853083L177.33348450227217,17.689999961853083L177.40943032004614,17.689999961853083L177.43474559263748,17.689999961853083L177.48537613782017,17.689999961853083L177.5106914104115,17.689999961853083L177.53600668300282,17.689999961853083L177.56132195559417,17.689999961853083L177.58663722818548,17.689999961853083L177.66258304595948,17.689999961853083L177.71321359114214,17.689999961853083L177.78915940891613,17.689999961853083L177.8397899540988,17.689999961853083L177.91573577187276,17.689999961853083L177.9410510444641,17.689999961853083L178.01699686223813,17.689999961853083L178.04231213482944,17.689999961853083L178.0676274074208,17.689999961853083L178.0929426800121,17.689999961853083L178.14357322519476,17.689999961853083L178.39672595110807,17.689999961853083L178.47267176888204,17.689999961853083L179.156184128848,17.689999961853083L179.2574452192133,17.689999961853083L179.30807576439597,17.689999961853083L179.38402158216996,17.689999961853083L179.51059794512662,17.689999961853083L179.66248958067462,17.689999961853083L179.78906594363127,17.689999961853083L179.81438121622259,17.689999961853083L179.83969648881393,17.689999961853083L180.01690339695324,17.689999961853083L180.19411030509255,17.689999961853083L180.3206866680492,17.689999961853083L180.3966324858232,17.689999961853083L180.42194775841452,17.689999961853083L180.44726303100586,17.689999961853083L180.70041575691917,17.689999961853083L180.9788837554238,17.689999961853083L181.02951430060645,17.689999961853083L181.0548295731978,17.689999961853083L181.1560906635631,17.689999961853083L181.23203648133713,17.689999961853083L181.4598739346591,18.795624959468874L181.48518920725041,18.353374960422556L181.7130266605724,18.08802496099475L181.76365720575507,17.928814961338052L181.91554884130304,17.83328896154405L182.143386294625,17.775973361667646L182.24464738499034,17.741584001741796L182.34590847535569,17.72095038578631L182.39653902053834,17.708570216213005L182.42185429312966,17.70114211446903L182.4724848383123,17.696685253422633L182.49780011090365,17.69401113679478L182.57374592867765,17.692406666818094L182.64969174645162,17.69144398483208L182.70032229163428,17.690866375640468L182.92815974495628,17.69051981012548L183.05473610791293,17.690311870816515L183.18131247086959,17.690187107231125L183.23194301605224,17.6901122490799L183.25725828864356,17.69006733418914L183.28257356123493,17.69004038525472L183.3585193790089,17.69002421589404L183.58635683233086,17.69001451427763L183.89014010342686,17.690008693307796L183.96608592120086,17.69000520072591L184.04203173897483,17.69000310517677L184.24455391970548,17.690001847847274L184.2698691922968,17.690001093449588L184.29518446488814,17.69000064081098L184.39644555525348,17.69000036922782L184.4217608278448,17.690000206277908L184.47239137302745,17.69000010850797L184.85212046189744,17.69000004984599L184.9280662796714,17.690000014648795L184.95338155226275,17.689999993530503L185.20653427817604,17.689999980859504L185.3331106411327,17.68999997325692L185.45968700408937,17.689999968695368L185.68752445741134,17.68999996595844L185.91536191073328,17.68999996431627L186.04193827368996,17.68999996333098L186.0672535462813,17.689999962739822L186.3963520899686,17.689999962385127L186.77608117883855,17.68999996217231L186.87734226920387,17.68999996204461L186.9026575417952,17.689999961967974L186.97860335956918,17.68999996192202L187.00391863216055,17.689999961894443L187.0545491773432,17.689999961877866L187.07986444993455,17.68999996186793L187.25707135807383,17.68999996186196L187.66211571953514,17.689999961858383L187.91526844544845,17.689999961856262L187.94058371803976,17.68999996185497L187.9658989906311,17.68999996185418L187.99121426322242,17.68999996185371L188.06716008099644,17.689999961853434L188.1937364439531,17.689999961853278L188.2949975343184,17.6899999618532L188.52283498764038,17.689999961853122L188.57346553282306,17.689999961853083L188.7000418957797,17.689999961853083L188.7759877135537,17.689999961853083L188.92787934910166,17.689999961853083L189.13040152983234,17.689999961853083L189.2822931653803,17.689999961853083L189.3582389831543,17.689999961853083L189.43418480092828,17.689999961853083L189.48481534611093,17.689999961853083L189.61139170906762,17.689999961853083L189.88985970757224,17.689999961853083L190.06706661571155,17.689999961853083L190.09238188830287,17.689999961853083L190.44679570458152,17.689999961853083L190.77589424826883,17.689999961853083L190.95310115640814,17.689999961853083L191.0796775193648,17.689999961853083L191.1049927919561,17.689999961853083L191.13030806454745,17.689999961853083L191.2568844275041,17.689999961853083L191.3075149726868,17.689999961853083L191.38346079046076,17.689999961853083L191.45940660823476,17.689999961853083L191.53535242600873,17.689999961853083L191.63661351637407,17.689999961853083L191.66192878896538,17.689999961853083L191.83913569710472,17.689999961853083L191.86445096969604,17.689999961853083L191.88976624228738,17.689999961853083L192.19354951338335,17.689999961853083L192.24418005856603,17.689999961853083L192.67453969261862,17.689999961853083L192.75048551039265,17.689999961853083L192.85174660075796,17.689999961853083L192.9783229637146,17.689999961853083L193.0542687814886,17.689999961853083L193.33273677999324,17.689999961853083L193.58588950590655,17.689999961853083L193.6365200510892,17.689999961853083L193.8137269592285,17.689999961853083L194.11751023032448,17.689999961853083L194.16814077550714,17.689999961853083L194.3706629562378,17.689999961853083L194.5225545917858,17.689999961853083L194.6238156821511,17.689999961853083L194.67444622733376,17.689999961853083L194.75039204510776,17.689999961853083L194.82633786288173,17.689999961853083L194.92759895324707,17.689999961853083L195.10480586138638,17.689999961853083L195.23138222434304,17.689999961853083L195.48453495025635,17.689999961853083L195.7123724035783,17.689999961853083L195.8642640391263,17.689999961853083L195.914894584309,17.689999961853083L196.11741676503962,17.689999961853083L217.6353984676708,17.689999961853083L218.04044282913208,17.689999961853083L218.14170391949742,17.689999961853083L218.44548719059335,17.689999961853083L218.6226940987327,17.689999961853083L218.6986399165067,17.689999961853083L218.7745857342807,17.689999961853083L218.799901006872,17.689999961853083L218.82521627946335,17.689999961853083L219.07836900537663,17.689999961853083L219.28089118610728,17.689999961853083L219.33152173128997,17.689999961853083L219.35683700388128,17.689999961853083L219.40746754906394,17.689999961853083L219.66062027497728,17.689999961853083L219.73656609275125,17.689999961853083L219.7618813653426,17.689999961853083L220.01503409125587,17.689999961853083L220.0403493638472,17.689999961853083L220.72386172381312,17.689999961853083L221.1035908126831,17.689999961853083L221.12890608527442,17.689999961853083L221.20485190304842,17.689999961853083L221.28079772082242,17.689999961853083L221.3314282660051,17.689999961853083L221.40737408377908,17.689999961853083L221.5845809919184,17.689999961853083L221.60989626450973,17.689999961853083L221.7617879000577,17.689999961853083L221.96431008078835,17.689999961853083L222.090886443745,17.689999961853083L222.72376825852828,17.689999961853083L223.3819653459029,17.689999961853083L223.43259589108555,17.689999961853083L223.4832264362682,17.689999961853083L223.55917225404218,17.689999961853083L223.78700970736415,17.689999961853083L223.91358607032083,17.689999961853083L224.01484716068614,17.689999961853083L224.3186304317821,17.689999961853083L224.39457624955608,17.689999961853083L224.41989152214745,17.689999961853083L224.52115261251276,17.689999961853083L224.5464678851041,17.689999961853083L224.72367479324342,17.689999961853083L224.8755664287914,17.689999961853083L225.05277333693073,17.689999961853083L225.07808860952204,17.689999961853083L225.15403442729604,17.689999961853083L225.22998024507,17.689999961853083L225.40718715320932,17.689999961853083L225.43250242580066,17.689999961853083L225.533763516166,17.689999961853083L225.9641231502186,17.689999961853083L226.01475369540128,17.689999961853083L226.06538424058394,17.689999961853083L226.09069951317528,17.689999961853083L226.11601478576662,17.689999961853083L226.16664533094928,17.689999961853083L226.21727587613194,17.689999961853083L226.2932216939059,17.689999961853083L226.39448278427122,17.689999961853083L226.4451133294539,17.689999961853083L226.64763551018456,17.689999961853083L226.67295078277587,17.689999961853083L226.79952714573253,17.689999961853083L226.90078823609784,17.689999961853083L227.1792562346025,17.689999961853083L227.30583259755915,17.689999961853083L227.3564631427418,17.689999961853083L227.40709368792446,17.689999961853083L227.6602464138378,17.689999961853083L227.73619223161177,17.689999961853083L227.7615075042031,17.689999961853083L227.78682277679442,17.689999961853083L227.86276859456842,17.689999961853083L228.11592132048176,17.689999961853083L228.3437587738037,17.689999961853083L228.39438931898638,17.689999961853083L228.4197045915777,17.689999961853083L228.4956504093517,17.689999961853083L228.54628095453435,17.689999961853083L228.62222677230832,17.689999961853083L228.748803135265,17.689999961853083L228.824748953039,17.689999961853083L229.00195586117832,17.689999961853083L229.02727113376963,17.689999961853083L229.1538474967263,17.689999961853083L229.20447804190897,17.689999961853083L229.25510858709163,17.689999961853083L229.63483767596156,17.689999961853083L229.91330567446622,17.689999961853083L230.36898058111018,17.689999961853083L230.41961112629284,17.689999961853083L230.49555694406683,17.689999961853083L230.59681803443215,17.689999961853083L230.7993402151628,17.689999961853083L230.9006013055281,17.689999961853083L230.9765471233021,17.689999961853083L231.10312348625877,17.689999961853083L231.22969984921542,17.689999961853083L231.40690675735473,17.689999961853083L231.6094289380854,17.689999961853083L231.81195111881604,17.689999961853083L231.9385274817727,17.689999961853083L232.09041911732066,17.689999961853083L232.115734389912,17.689999961853083L232.19168020768598,17.689999961853083L232.47014820619063,17.689999961853083L232.6979856595126,17.689999961853083L232.72330093210394,17.689999961853083L232.7739314772866,17.689999961853083L232.82456202246925,17.689999961853083L233.07771474838256,17.689999961853083L233.25492165652187,17.689999961853083L233.60933547280052,17.689999961853083L233.73591183575715,17.689999961853083L233.7612271083485,17.689999961853083L233.9890645616705,17.689999961853083L234.3434783779491,17.689999961853083L234.54600055867976,17.689999961853083L234.77383801200173,17.689999961853083L234.8497838297757,17.689999961853083L234.9763601927324,17.689999961853083L235.12825182828036,17.689999961853083L235.254828191237,17.689999961853083L235.38140455419367,17.689999961853083L235.58392673492432,17.689999961853083L235.65987255269832,17.689999961853083L235.73581837047232,17.689999961853083L235.86239473342894,17.689999961853083L235.93834055120294,17.689999961853083L236.06491691415962,17.689999961853083L236.16617800452494,17.689999961853083L236.2421238222989,17.689999961853083L236.29275436748156,17.689999961853083L236.41933073043822,17.689999961853083L236.44464600302956,17.689999961853083L236.59653763857756,17.689999961853083L236.67248345635156,17.689999961853083L236.74842927412553,17.689999961853083L236.77374454671687,17.689999961853083L237.0522125452215,17.689999961853083L237.1281583629955,17.689999961853083L237.35599581631746,17.689999961853083L237.5585179970481,17.689999961853083L237.73572490518745,17.689999961853083L237.93824708591808,17.689999961853083L238.11545399405742,17.689999961853083L238.1913998118314,17.689999961853083L238.39392199256204,17.689999961853083L238.49518308292735,17.689999961853083L238.59644417329267,17.689999961853083L238.621759445884,17.689999961853083L238.74833580884066,17.689999961853083L238.79896635402332,17.689999961853083L238.90022744438866,17.689999961853083L260.4182091470198,17.689999961853083L260.69667714552446,17.689999961853083L260.8232535084811,17.689999961853083L260.8991993262551,17.689999961853083L261.02577568921174,17.689999961853083L261.25361314253377,17.689999961853083L261.27892841512505,17.689999961853083L261.32955896030774,17.689999961853083L261.7092880491777,17.689999961853083L261.75991859436033,17.689999961853083L261.78523386695167,17.689999961853083L261.810549139543,17.689999961853083L261.93712550249967,17.689999961853083L262.038386592865,17.689999961853083L262.11433241063895,17.689999961853083L262.2155935010043,17.689999961853083L262.24090877359566,17.689999961853083L262.2915393187783,17.689999961853083L262.342169863961,17.689999961853083L262.46874622691763,17.689999961853083L262.51937677210026,17.689999961853083L262.62063786246557,17.689999961853083L262.64595313505697,17.689999961853083L263.00036695133554,17.689999961853083L263.10162804170085,17.689999961853083L263.2535196772489,17.689999961853083L263.30415022243153,17.689999961853083L263.3800960402055,17.689999961853083L263.4560418579795,17.689999961853083L263.5826182209362,17.689999961853083L263.60793349352747,17.689999961853083L263.65856403871015,17.689999961853083L263.7091945838928,17.689999961853083L264.0129778549888,17.689999961853083L264.31676112608477,17.689999961853083L264.3420763986761,17.689999961853083L264.64585966977205,17.689999961853083" fill="none"></path></g></g></g></g><g opacity="0.2"><g><g><g><path style="fill: none;" stroke="rgb(51, 187, 238)" stroke-width="2px" d="M25.770947497974742,161.42124965190888L26.505090403123337,48.09468739628793L26.884819491993298,31.51031243205072L26.910134764584626,28.746249938011186L27.922745668237862,17.689999961853044L28.024006758603182,20.45406245589258L29.46697729630904,20.45406245589258L29.669499477039682,17.689999961853044L30.150489656274967,20.45406245589258L31.11247001474554,17.689999961853044L32.454179462086074,17.689999961853044L35.08696781158447,17.689999961853044L35.492012173045765,17.689999961853044L35.82111071673307,17.689999961853044L36.37804671374234,17.689999961853044L36.605884167064325,17.689999961853044L37.0868743462996,17.689999961853044L37.34002707221291,20.45406245589258L38.22606161290949,17.689999961853044L38.808312882510094,20.45406245589258L39.390564152110706,17.689999961853044L39.54245578765869,17.689999961853044L40.352544510581275,17.689999961853044L44.656140851107516,17.689999961853044L44.934608849612154,17.689999961853044L46.681362658413974,17.689999961853044L46.7066779310053,17.689999961853044L46.73199320359663,17.689999961853044L46.7826237487793,17.689999961853044L46.80793902137063,17.689999961853044L46.934515384327284,17.689999961853044L46.95983065691861,17.689999961853044L47.035776474692604,17.689999961853044L47.06109174728394,17.689999961853044L47.08640701987527,17.689999961853044L47.13703756505792,17.689999961853044L47.21298338283192,17.689999961853044L47.33955974578858,17.689999961853044L47.41550556356257,17.689999961853044L47.51676665392789,17.689999961853044L47.542081926519224,17.689999961853044L47.64334301688454,17.689999961853044L47.66865828947588,17.689999961853044L47.69397356206721,17.689999961853044L47.719288834658535,17.689999961853044L47.7699193798412,17.689999961853044L47.99775683316317,17.689999961853044L48.0230721057545,17.689999961853044L48.149648468711156,17.689999961853044L48.20027901389383,17.689999961853044L48.25090955907648,17.689999961853044L48.30154010425914,17.689999961853044L48.32685537685048,17.689999961853044L48.402801194624466,17.689999961853044L48.428116467215794,17.689999961853044L48.52937755758112,17.689999961853044L48.55469283017245,17.689999961853044L48.655953920537776,17.689999961853044L48.681269193129104,17.689999961853044L48.70658446572043,17.689999961853044L48.78253028349443,17.689999961853044L48.95973719163374,17.689999961853044L49.010367736816406,17.689999961853044L49.03568300940774,17.689999961853044L49.13694409977306,17.689999961853044L49.187574644955724,17.689999961853044L49.23820519013838,17.689999961853044L49.288835735321044,17.689999961853044L49.31415100791238,17.689999961853044L49.33946628050371,17.689999961853044L49.39009682568637,17.689999961853044L49.44072737086903,17.689999961853044L49.46604264346036,17.689999961853044L49.49135791605169,17.689999961853044L49.541988461234354,17.689999961853044L49.64324955159968,17.689999961853044L49.87108700492165,17.689999961853044L49.92171755010432,17.689999961853044L49.9976633678783,17.689999961853044L50.20018554860896,17.689999961853044L50.25081609379161,17.689999961853044L50.27613136638294,17.689999961853044L50.30144663897427,17.689999961853044L50.32676191156561,17.689999961853044L50.35207718415694,17.689999961853044L50.45333827452227,17.689999961853044L50.579914637478915,17.689999961853044L50.60522991007025,17.689999961853044L50.63054518266158,17.689999961853044L50.655860455252906,17.689999961853044L50.70649100043557,17.689999961853044L50.85838263598355,17.689999961853044L50.88369790857489,17.689999961853044L50.95964372634887,17.689999961853044L51.0609048167142,17.689999961853044L51.08622008930553,17.689999961853044L51.13685063448819,17.689999961853044L51.23811172485352,17.689999961853044L51.3900033604015,17.689999961853044L51.49126445076683,17.689999961853044L51.541894995949484,17.689999961853044L51.56721026854081,17.689999961853044L51.59252554113215,17.689999961853044L51.7191019040888,17.689999961853044L51.82036299445412,17.689999961853044L51.84567826704545,17.689999961853044L52.14946153814143,17.689999961853044L52.17477681073276,17.689999961853044L52.20009208332409,17.689999961853044L52.225407355915415,17.689999961853044L52.32666844628074,17.689999961853044L52.3772989914634,17.689999961853044L52.42792953664607,17.689999961853044L52.478560081828725,17.689999961853044L52.50387535442005,17.689999961853044L52.52919062701138,17.689999961853044L52.57982117219405,17.689999961853044L52.63045171737671,17.689999961853044L52.68108226255937,17.689999961853044L52.7063975351507,17.689999961853044L52.75702808033336,17.689999961853044L52.832973898107355,17.689999961853044L52.95955026106401,17.689999961853044L53.01018080624667,17.689999961853044L53.162072441794656,17.689999961853044L53.187387714385984,17.689999961853044L53.21270298697732,17.689999961853044L53.23801825956865,17.689999961853044L53.31396407734264,17.689999961853044L53.339279349933975,17.689999961853044L53.38990989511663,17.689999961853044L53.46585571289063,17.689999961853044L53.516486258073286,17.689999961853044L53.59243207584728,17.689999961853044L53.66837789362127,17.689999961853044L53.74432371139527,17.689999961853044L53.82026952916925,17.689999961853044L53.92153061953458,17.689999961853044L53.99747643730858,17.689999961853044L54.022791709899906,17.689999961853044L54.07342225508256,17.689999961853044L54.17468334544789,17.689999961853044L54.275944435813216,17.689999961853044L54.3518902535872,17.689999961853044L54.402520798769864,17.689999961853044L54.45315134395253,17.689999961853044L54.478466616543855,17.689999961853044L54.57972770690918,17.689999961853044L54.63035825209184,17.689999961853044L54.6809887972745,17.689999961853044L54.731619342457165,17.689999961853044L54.78224988763982,17.689999961853044L54.85819570541382,17.689999961853044L54.88351097800515,17.689999961853044L54.93414152318781,17.689999961853044L54.95945679577914,17.689999961853044L54.984772068370475,17.689999961853044L55.03540261355313,17.689999961853044L55.18729424910112,17.689999961853044L55.23792479428378,17.689999961853044L55.28855533946644,17.689999961853044L55.36450115724043,17.689999961853044L55.516392792788416,17.689999961853044L55.693599700927734,17.689999961853044L55.7442302461104,17.689999961853044L55.794860791293054,17.689999961853044L55.82017606388438,17.689999961853044L55.89612188165838,17.689999961853044L55.99738297202371,17.689999961853044L56.048013517206364,17.689999961853044L56.09864406238902,17.689999961853044L56.17458988016302,17.689999961853044L56.25053569793702,17.689999961853044L56.301166243119674,17.689999961853044L56.377112060893666,17.689999961853044L56.45305787866766,17.689999961853044L56.63026478680697,17.689999961853044L56.655580059398304,17.689999961853044L56.70621060458097,17.689999961853044L56.75684114976362,17.689999961853044L56.88341751272028,17.689999961853044L56.93404805790294,17.689999961853044L56.984678603085605,17.689999961853044L57.00999387567693,17.689999961853044L57.161885511224924,17.689999961853044L57.21251605640758,17.689999961853044L57.28846187418158,17.689999961853044L57.31377714677291,17.689999961853044L57.36440769195556,17.689999961853044L57.61756041786887,17.689999961853044L57.74413678082553,17.689999961853044L57.794767326008184,17.689999961853044L57.845397871190855,17.689999961853044L57.89602841637351,17.689999961853044L57.92134368896484,17.689999961853044L57.99728950673884,17.689999961853044L58.07323532451282,17.689999961853044L58.12386586969549,17.689999961853044L58.17449641487815,17.689999961853044L58.301072777834804,17.689999961853044L58.45296441338279,17.689999961853044L58.528910231156786,17.689999961853044L58.554225503748114,17.689999961853044L58.57954077633944,17.689999961853044L58.60485604893077,17.689999961853044L58.68080186670477,17.689999961853044L58.83269350225275,17.689999961853044L59.08584622816606,17.689999961853044L59.136476773348726,17.689999961853044L59.21242259112271,17.689999961853044L59.338998954079365,17.689999961853044L59.3643142266707,17.689999961853044L59.38962949926203,17.689999961853044L59.51620586221868,17.689999961853044L59.56683640740135,17.689999961853044L59.693412770358,17.689999961853044L59.769358588131986,17.689999961853044L59.845304405905985,17.689999961853044L59.99719604145397,20.45406245589258L60.022511314045296,17.689999961853044L60.047826586636624,17.689999961853044L60.25034876736728,17.689999961853044L60.32629458514127,17.689999961853044L60.42755567550659,17.689999961853044L60.45287094809792,17.689999961853044L60.50350149328059,20.45406245589258L60.528816765871916,17.689999961853044L60.60476258364591,17.689999961853044L60.65539312882857,17.689999961853044L60.6807084014199,17.689999961853044L60.75665421919389,17.689999961853044L60.807284764376554,17.689999961853044L60.83260003696788,17.689999961853044L60.98449167251587,17.689999961853044L61.0098069451072,17.689999961853044L61.08575276288119,17.689999961853044L61.18701385324651,17.689999961853044L61.26295967102051,17.689999961853044L61.31359021620317,17.689999961853044L61.338905488794495,17.689999961853044L61.36422076138583,17.689999961853044L61.389536033977166,17.689999961853044L61.592058214707805,17.689999961853044L61.61737348729913,17.689999961853044L61.642688759890476,17.689999961853044L61.71863457766446,17.689999961853044L61.74394985025579,17.689999961853044L61.79458039543846,17.689999961853044L61.845210940621115,17.689999961853044L61.87052621321244,17.689999961853044L61.89584148580377,17.689999961853044L61.97178730357777,17.689999961853044L62.022417848760426,17.689999961853044L62.17430948430842,17.689999961853044L62.19962475689975,17.689999961853044L62.300885847265064,17.689999961853044L62.351516392447735,17.689999961853044L62.62998439095237,17.689999961853044L62.68061493613503,17.689999961853044L62.781876026500356,17.689999961853044L62.807191299091684,17.689999961853044L62.85782184427435,17.689999961853044L62.93376766204834,17.689999961853044L63.00971347982233,17.689999961853044L63.060344025004994,17.689999961853044L63.136289842778986,17.689999961853044L63.21223566055298,17.689999961853044L63.49070365905762,17.689999961853044L64.07295492865822,17.689999961853044L64.22484656420622,17.689999961853044L64.35142292716287,17.689999961853044L64.42736874493686,17.689999961853044L64.52862983530218,17.689999961853044L64.65520619825884,17.689999961853044L64.83241310639815,17.689999961853044L64.85772837898948,17.689999961853044L65.0349352871288,17.689999961853044L65.11088110490279,17.689999961853044L65.13619637749412,17.689999961853044L65.18682692267679,17.689999961853044L65.41466437599875,17.689999961853044L65.54124073895541,17.689999961853044L65.66781710191206,17.689999961853044L65.79439346486872,17.689999961853044L65.89565455523405,17.689999961853044L66.30069891669534,17.689999961853044L66.351329461878,17.689999961853044L66.40196000706065,17.689999961853044L66.45259055224332,17.689999961853044L66.47790582483465,17.689999961853044L66.50322109742598,17.689999961853044L66.57916691519998,17.689999961853044L66.70574327815662,17.689999961853044L66.78168909593062,17.689999961853044L67.06015709443525,17.689999961853044L67.08547236702658,17.689999961853044L67.28799454775724,17.689999961853044L67.36394036553122,17.689999961853044L67.49051672848788,17.689999961853044L67.51583200107922,17.689999961853044L67.54114727367055,17.689999961853044L67.79429999958386,17.689999961853044L67.92087636254051,17.689999961853044L67.97150690772317,17.689999961853044L68.02213745290582,17.689999961853044L89.43885806517167,17.689999961853044L89.464173337763,17.689999961853044L89.56543442812833,17.689999961853044L89.84390242663297,17.689999961853044L89.89453297181564,17.689999961853044L90.14768569772895,17.689999961853044L90.35020787845959,17.689999961853044L90.42615369623358,17.689999961853044L90.55273005919022,17.689999961853044L90.6033606043729,17.689999961853044L90.67930642214688,20.45406245589258L90.72993696732955,17.689999961853044L90.90714387546886,17.689999961853044L91.10966605619952,17.689999961853044L91.33750350952148,17.689999961853044L91.69191732580012,17.689999961853044L91.71723259839145,17.689999961853044L91.79317841616543,17.689999961853044L91.81849368875676,17.689999961853044L92.19822277762674,17.689999961853044L92.22353805021807,17.689999961853044L92.37542968576604,17.689999961853044L92.40074495835738,17.689999961853044L92.42606023094872,17.689999961853044L92.47669077613138,17.689999961853044L92.5020060487227,17.689999961853044L92.52732132131403,17.689999961853044L92.65389768427067,17.689999961853044L92.70452822945336,17.689999961853044L92.90705041018398,17.689999961853044L92.93236568277531,17.689999961853044L93.10957259091464,17.689999961853044L93.18551840868862,17.689999961853044L93.2361489538713,17.689999961853044L93.4133558620106,17.689999961853044L93.43867113460193,17.689999961853044L93.46398640719326,17.689999961853044L93.64119331533259,17.689999961853044L93.79308495088057,17.689999961853044L93.81840022347191,17.689999961853044L93.8943460412459,17.689999961853044L93.91966131383722,17.689999961853044L93.97029185901988,17.689999961853044L94.32470567529852,17.689999961853044L94.4765973108465,17.689999961853044L94.62848894639448,17.689999961853044L95.03353330785578,17.689999961853044L95.08416385303845,17.689999961853044L95.21074021599509,17.689999961853044L95.26137076117776,17.689999961853044L95.5398387596824,17.689999961853044L95.56515403227372,17.689999961853044L95.74236094041304,17.689999961853044L95.81830675818703,17.689999961853044L96.12209002928302,17.689999961853044L96.32461221001364,17.689999961853044L96.40055802778765,17.689999961853044L96.47650384556164,17.689999961853044L96.5271343907443,17.689999961853044L96.57776493592695,17.689999961853044L96.83091766184026,17.689999961853044L96.98280929738826,17.689999961853044L97.2612772958929,17.689999961853044L97.41316893144086,17.689999961853044L98.14731183658947,17.689999961853044L98.19794238177212,17.689999961853044L98.2485729269548,17.689999961853044L98.27388819954612,17.689999961853044L98.34983401732012,17.689999961853044L98.4257798350941,17.689999961853044L98.45109510768543,17.689999961853044L98.78019365137274,17.689999961853044L98.95740055951205,17.689999961853044L99.15992274024269,17.689999961853044L99.564967101704,17.689999961853044L99.59028237429533,17.689999961853044L99.76748928243464,17.689999961853044L100.17253364389593,17.689999961853044L100.29911000685257,17.689999961853044L100.45100164240057,17.689999961853044L100.60289327794854,17.689999961853044L100.67883909572255,17.689999961853044L100.70415436831388,17.689999961853044L100.75478491349654,17.689999961853044L100.78010018608786,17.689999961853044L100.83073073127052,17.689999961853044L100.93199182163586,17.689999961853044L101.3876667282798,17.689999961853044L101.48892781864514,17.689999961853044L101.56487363641912,17.689999961853044L101.76739581714978,17.689999961853044L101.89397218010642,17.689999961853044L101.96991799788042,17.689999961853044L102.1218096334284,17.689999961853044L102.14712490601973,17.689999961853044L102.37496235934171,17.689999961853044L102.40027763193304,17.689999961853044L102.47622344970704,17.689999961853044L102.50153872229836,17.689999961853044L102.52685399488969,17.689999961853044L102.62811508525502,17.689999961853044L102.72937617562035,17.689999961853044L102.780006720803,17.689999961853044L102.85595253857699,17.689999961853044L103.00784417412498,17.689999961853044L103.28631217262962,17.689999961853044L103.41288853558626,17.689999961853044L103.6913565340909,17.689999961853044L103.71667180668223,17.689999961853044L103.74198707927357,17.689999961853044L103.76730235186491,17.689999961853044L103.86856344223023,17.689999961853044L103.94450926000421,17.689999961853044L103.99513980518687,17.689999961853044L104.72928271033547,17.689999961853044L104.7545979829268,17.689999961853044L104.83054380070078,17.689999961853044L104.85585907329214,17.689999961853044L105.18495761697943,17.689999961853044L105.28621870734474,17.689999961853044L105.3368492525274,17.689999961853044L105.76720888658004,17.689999961853044L105.81783943176269,17.689999961853044L106.34946015618064,17.689999961853044L106.42540597395464,17.689999961853044L106.67855869986795,17.689999961853044L106.75450451764193,17.689999961853044L106.77981979023326,17.689999961853044L106.93171142578126,17.689999961853044L107.0582877887379,17.689999961853044L107.10891833392056,17.689999961853044L107.23549469687723,17.689999961853044L107.7924306938865,17.689999961853044L107.91900705684314,17.689999961853044L108.02026814720848,17.689999961853044L108.09621396498247,17.689999961853044L108.47594305385242,17.689999961853044L108.75441105235706,17.689999961853044L108.83035687013107,17.689999961853044L108.98224850567904,17.689999961853044L109.361977594549,17.689999961853044L109.69107613823631,17.689999961853044L109.8429677737843,17.689999961853044L109.89359831896695,17.689999961853044L110.17206631747159,17.689999961853044L110.22269686265425,17.689999961853044L110.3492732256109,17.689999961853044L110.39990377079357,17.689999961853044L110.60242595152421,17.689999961853044L110.67837176929821,17.689999961853044L110.70368704188954,17.689999961853044L132.17103819933806,17.689999961853044L132.29761456229468,17.689999961853044L132.3735603800687,17.689999961853044L132.77860474153,17.689999961853044L132.85455055930396,17.689999961853044L133.00644219485196,17.689999961853044L133.31022546594792,17.689999961853044L133.33554073853927,17.689999961853044L133.36085601113058,17.689999961853044L133.4368018289046,17.689999961853044L133.66463928222655,17.689999961853044L133.91779200813986,17.689999961853044L133.99373782591385,17.689999961853044L134.14562946146185,17.689999961853044L134.22157527923582,17.689999961853044L134.3481516421925,17.689999961853044L134.47472800514913,17.689999961853044L134.75319600365378,17.689999961853044L134.87977236661044,17.689999961853044L134.95571818438444,17.689999961853044L135.20887091029775,17.689999961853044L135.76580690730702,17.689999961853044L135.81643745248968,17.689999961853044L135.84175272508102,17.689999961853044L135.917698542855,17.689999961853044L136.04427490581165,17.689999961853044L136.22148181395096,17.689999961853044L136.29742763172496,17.689999961853044L136.37337344949896,17.689999961853044L136.47463453986427,17.689999961853044L136.77841781096024,17.689999961853044L136.87967890132558,17.689999961853044L137.00625526428223,17.689999961853044L137.1328316272389,17.689999961853044L137.18346217242154,17.689999961853044L137.25940799019554,17.689999961853044L137.3353538079695,17.689999961853044L137.84165925979613,17.689999961853044L138.1454425308921,17.689999961853044L138.24670362125744,17.689999961853044L138.27201889384878,17.689999961853044L138.49985634717075,17.689999961853044L138.57580216494475,17.689999961853044L138.65174798271872,17.689999961853044L138.80363961826671,17.689999961853044L138.93021598122337,17.689999961853044L139.6896741589633,17.689999961853044L139.94282688487658,17.689999961853044L140.12003379301592,17.689999961853044L140.17066433819858,17.689999961853044L140.2719254285639,17.689999961853044L140.29724070115523,17.689999961853044L140.5250781544772,17.689999961853044L140.5503934270685,17.689999961853044L140.57570869965988,17.689999961853044L140.62633924484254,17.689999961853044L140.80354615298185,17.689999961853044L141.0820141514865,17.689999961853044L141.13264469666916,17.689999961853044L141.20859051444313,17.689999961853044L141.25922105962582,17.689999961853044L141.56300433072175,17.689999961853044L141.6136348759044,17.689999961853044L141.68958069367844,17.689999961853044L141.71489596626975,17.689999961853044L141.7655265114524,17.689999961853044L142.01867923736572,17.689999961853044L142.09462505513972,17.689999961853044L142.27183196327903,17.689999961853044L142.34777778105303,17.689999961853044L142.37309305364437,17.689999961853044L142.42372359882702,17.689999961853044L142.44903887141834,17.689999961853044L142.55029996178365,17.689999961853044L142.62624577955765,17.689999961853044L142.65156105214902,17.689999961853044L142.70219159733168,17.689999961853044L142.85408323287965,17.689999961853044L143.41101922988892,17.689999961853044L143.53759559284558,17.689999961853044L143.76543304616757,17.689999961853044L143.7907483187589,17.689999961853044L144.0692163172635,17.689999961853044L144.11984686244617,17.689999961853044L144.39831486095082,17.689999961853044L144.44894540613348,17.689999961853044L144.5502064964988,17.689999961853044L144.67678285945544,17.689999961853044L144.70209813204679,17.689999961853044L144.90462031277744,17.689999961853044L145.25903412905606,17.689999961853044L145.46155630978672,17.689999961853044L145.56281740015203,17.689999961853044L145.61344794533468,17.689999961853044L145.63876321792603,17.689999961853044L145.66407849051734,17.689999961853044L145.74002430829134,17.689999961853044L145.76533958088268,17.689999961853044L145.91723121643068,17.689999961853044L146.018492306796,17.689999961853044L146.1956992149353,17.689999961853044L146.22101448752662,17.689999961853044L146.27164503270927,17.689999961853044L146.29696030530062,17.689999961853044L146.32227557789196,17.689999961853044L146.34759085048327,17.689999961853044L146.4235366682573,17.689999961853044L146.55011303121393,17.689999961853044L146.65137412157927,17.689999961853044L146.70200466676192,17.689999961853044L146.72731993935324,17.689999961853044L146.75263521194458,17.689999961853044L146.90452684749258,17.689999961853044L147.13236430081454,17.689999961853044L147.2589406637712,17.689999961853044L147.30957120895386,17.689999961853044L147.66398502523248,17.689999961853044L147.71461557041513,17.689999961853044L147.76524611559782,17.689999961853044L147.8411919333718,17.689999961853044L147.9930835689198,17.689999961853044L148.01839884151113,17.689999961853044L148.14497520446778,17.689999961853044L148.44875847556372,17.689999961853044L148.4740737481551,17.689999961853044L148.67659592888572,17.689999961853044L148.72722647406837,17.689999961853044L148.75254174665972,17.689999961853044L148.80317229184237,17.689999961853044L149.00569447257303,17.689999961853044L149.08164029034702,17.689999961853044L149.10695556293834,17.689999961853044L149.15758610812102,17.689999961853044L149.25884719848634,17.689999961853044L149.28416247107765,17.689999961853044L149.3347930162603,17.689999961853044L149.537315196991,17.689999961853044L149.5626304695823,17.689999961853044L149.68920683253896,17.689999961853044L149.7398373777216,17.689999961853044L149.79046792290427,17.689999961853044L149.96767483104358,17.689999961853044L150.19551228436558,17.689999961853044L150.24614282954823,17.689999961853044L150.27145810213958,17.689999961853044L150.3727191925049,17.689999961853044L150.54992610064417,17.689999961853044L150.57524137323554,17.689999961853044L150.7018177361922,17.689999961853044L150.8030788265575,17.689999961853044L150.98028573469682,17.689999961853044L151.0562315524708,17.689999961853044L151.08154682506213,17.689999961853044L151.10686209765345,17.689999961853044L151.30938427838413,17.689999961853044L151.84100500280206,17.689999961853044L151.99289663835006,17.689999961853044L152.09415772871537,17.689999961853044L152.47388681758534,17.689999961853044L152.524517362768,17.689999961853044L152.57514790795065,17.689999961853044L152.65109372572465,17.689999961853044L152.70172427090733,17.689999961853044L152.75235481609,17.689999961853044L152.7776700886813,17.689999961853044L152.80298536127265,17.689999961853044L152.828300633864,17.689999961853044L152.8536159064553,17.689999961853044L152.87893117904665,17.689999961853044L152.98019226941196,17.689999961853044L153.15739917755127,17.689999961853044L153.33460608569058,17.689999961853044L175.18168633200906,17.689999961853044L175.20700160460038,17.689999961853044L175.28294742237438,17.689999961853044L175.38420851273972,17.689999961853044L175.66267651124434,17.689999961853044L175.713307056427,17.689999961853044L175.76393760160965,17.689999961853044L176.09303614529696,17.689999961853044L176.1183514178883,17.689999961853044L176.19429723566228,17.689999961853044L176.27024305343627,17.689999961853044L176.32087359861893,17.689999961853044L176.42213468898424,17.689999961853044L176.47276523416693,17.689999961853044L176.52339577934958,17.689999961853044L176.64997214230624,17.689999961853044L177.0043859585849,17.689999961853044L177.05501650376755,17.689999961853044L177.13096232154152,17.689999961853044L177.20690813931552,17.689999961853044L177.33348450227217,17.689999961853044L177.40943032004614,17.689999961853044L177.43474559263748,17.689999961853044L177.48537613782017,17.689999961853044L177.5106914104115,17.689999961853044L177.53600668300282,17.689999961853044L177.56132195559417,17.689999961853044L177.58663722818548,17.689999961853044L177.66258304595948,17.689999961853044L177.71321359114214,17.689999961853044L177.78915940891613,17.689999961853044L177.8397899540988,17.689999961853044L177.91573577187276,17.689999961853044L177.9410510444641,17.689999961853044L178.01699686223813,17.689999961853044L178.04231213482944,17.689999961853044L178.0676274074208,17.689999961853044L178.0929426800121,17.689999961853044L178.14357322519476,17.689999961853044L178.39672595110807,17.689999961853044L178.47267176888204,17.689999961853044L179.156184128848,17.689999961853044L179.2574452192133,17.689999961853044L179.30807576439597,17.689999961853044L179.38402158216996,17.689999961853044L179.51059794512662,17.689999961853044L179.66248958067462,17.689999961853044L179.78906594363127,17.689999961853044L179.81438121622259,17.689999961853044L179.83969648881393,17.689999961853044L180.01690339695324,17.689999961853044L180.19411030509255,17.689999961853044L180.3206866680492,17.689999961853044L180.3966324858232,17.689999961853044L180.42194775841452,17.689999961853044L180.44726303100586,17.689999961853044L180.70041575691917,17.689999961853044L180.9788837554238,17.689999961853044L181.02951430060645,17.689999961853044L181.0548295731978,17.689999961853044L181.1560906635631,17.689999961853044L181.23203648133713,17.689999961853044L181.4598739346591,20.45406245589258L181.48518920725041,17.689999961853044L181.7130266605724,17.689999961853044L181.76365720575507,17.689999961853044L181.91554884130304,17.689999961853044L182.143386294625,17.689999961853044L182.24464738499034,17.689999961853044L182.34590847535569,17.689999961853044L182.39653902053834,17.689999961853044L182.42185429312966,17.689999961853044L182.4724848383123,17.689999961853044L182.49780011090365,17.689999961853044L182.57374592867765,17.689999961853044L182.64969174645162,17.689999961853044L182.70032229163428,17.689999961853044L182.92815974495628,17.689999961853044L183.05473610791293,17.689999961853044L183.18131247086959,17.689999961853044L183.23194301605224,17.689999961853044L183.25725828864356,17.689999961853044L183.28257356123493,17.689999961853044L183.3585193790089,17.689999961853044L183.58635683233086,17.689999961853044L183.89014010342686,17.689999961853044L183.96608592120086,17.689999961853044L184.04203173897483,17.689999961853044L184.24455391970548,17.689999961853044L184.2698691922968,17.689999961853044L184.29518446488814,17.689999961853044L184.39644555525348,17.689999961853044L184.4217608278448,17.689999961853044L184.47239137302745,17.689999961853044L184.85212046189744,17.689999961853044L184.9280662796714,17.689999961853044L184.95338155226275,17.689999961853044L185.20653427817604,17.689999961853044L185.3331106411327,17.689999961853044L185.45968700408937,17.689999961853044L185.68752445741134,17.689999961853044L185.91536191073328,17.689999961853044L186.04193827368996,17.689999961853044L186.0672535462813,17.689999961853044L186.3963520899686,17.689999961853044L186.77608117883855,17.689999961853044L186.87734226920387,17.689999961853044L186.9026575417952,17.689999961853044L186.97860335956918,17.689999961853044L187.00391863216055,17.689999961853044L187.0545491773432,17.689999961853044L187.07986444993455,17.689999961853044L187.25707135807383,17.689999961853044L187.66211571953514,17.689999961853044L187.91526844544845,17.689999961853044L187.94058371803976,17.689999961853044L187.9658989906311,17.689999961853044L187.99121426322242,17.689999961853044L188.06716008099644,17.689999961853044L188.1937364439531,17.689999961853044L188.2949975343184,17.689999961853044L188.52283498764038,17.689999961853044L188.57346553282306,17.689999961853044L188.7000418957797,17.689999961853044L188.7759877135537,17.689999961853044L188.92787934910166,17.689999961853044L189.13040152983234,17.689999961853044L189.2822931653803,17.689999961853044L189.3582389831543,17.689999961853044L189.43418480092828,17.689999961853044L189.48481534611093,17.689999961853044L189.61139170906762,17.689999961853044L189.88985970757224,17.689999961853044L190.06706661571155,17.689999961853044L190.09238188830287,17.689999961853044L190.44679570458152,17.689999961853044L190.77589424826883,17.689999961853044L190.95310115640814,17.689999961853044L191.0796775193648,17.689999961853044L191.1049927919561,17.689999961853044L191.13030806454745,17.689999961853044L191.2568844275041,17.689999961853044L191.3075149726868,17.689999961853044L191.38346079046076,17.689999961853044L191.45940660823476,17.689999961853044L191.53535242600873,17.689999961853044L191.63661351637407,17.689999961853044L191.66192878896538,17.689999961853044L191.83913569710472,17.689999961853044L191.86445096969604,17.689999961853044L191.88976624228738,17.689999961853044L192.19354951338335,17.689999961853044L192.24418005856603,17.689999961853044L192.67453969261862,17.689999961853044L192.75048551039265,17.689999961853044L192.85174660075796,17.689999961853044L192.9783229637146,17.689999961853044L193.0542687814886,17.689999961853044L193.33273677999324,17.689999961853044L193.58588950590655,17.689999961853044L193.6365200510892,17.689999961853044L193.8137269592285,17.689999961853044L194.11751023032448,17.689999961853044L194.16814077550714,17.689999961853044L194.3706629562378,17.689999961853044L194.5225545917858,17.689999961853044L194.6238156821511,17.689999961853044L194.67444622733376,17.689999961853044L194.75039204510776,17.689999961853044L194.82633786288173,17.689999961853044L194.92759895324707,17.689999961853044L195.10480586138638,17.689999961853044L195.23138222434304,17.689999961853044L195.48453495025635,17.689999961853044L195.7123724035783,17.689999961853044L195.8642640391263,17.689999961853044L195.914894584309,17.689999961853044L196.11741676503962,17.689999961853044L217.6353984676708,17.689999961853044L218.04044282913208,17.689999961853044L218.14170391949742,17.689999961853044L218.44548719059335,17.689999961853044L218.6226940987327,17.689999961853044L218.6986399165067,17.689999961853044L218.7745857342807,17.689999961853044L218.799901006872,17.689999961853044L218.82521627946335,17.689999961853044L219.07836900537663,17.689999961853044L219.28089118610728,17.689999961853044L219.33152173128997,17.689999961853044L219.35683700388128,17.689999961853044L219.40746754906394,17.689999961853044L219.66062027497728,17.689999961853044L219.73656609275125,17.689999961853044L219.7618813653426,17.689999961853044L220.01503409125587,17.689999961853044L220.0403493638472,17.689999961853044L220.72386172381312,17.689999961853044L221.1035908126831,17.689999961853044L221.12890608527442,17.689999961853044L221.20485190304842,17.689999961853044L221.28079772082242,17.689999961853044L221.3314282660051,17.689999961853044L221.40737408377908,17.689999961853044L221.5845809919184,17.689999961853044L221.60989626450973,17.689999961853044L221.7617879000577,17.689999961853044L221.96431008078835,17.689999961853044L222.090886443745,17.689999961853044L222.72376825852828,17.689999961853044L223.3819653459029,17.689999961853044L223.43259589108555,17.689999961853044L223.4832264362682,17.689999961853044L223.55917225404218,17.689999961853044L223.78700970736415,17.689999961853044L223.91358607032083,17.689999961853044L224.01484716068614,17.689999961853044L224.3186304317821,17.689999961853044L224.39457624955608,17.689999961853044L224.41989152214745,17.689999961853044L224.52115261251276,17.689999961853044L224.5464678851041,17.689999961853044L224.72367479324342,17.689999961853044L224.8755664287914,17.689999961853044L225.05277333693073,17.689999961853044L225.07808860952204,17.689999961853044L225.15403442729604,17.689999961853044L225.22998024507,17.689999961853044L225.40718715320932,17.689999961853044L225.43250242580066,17.689999961853044L225.533763516166,17.689999961853044L225.9641231502186,17.689999961853044L226.01475369540128,17.689999961853044L226.06538424058394,17.689999961853044L226.09069951317528,17.689999961853044L226.11601478576662,17.689999961853044L226.16664533094928,17.689999961853044L226.21727587613194,17.689999961853044L226.2932216939059,17.689999961853044L226.39448278427122,17.689999961853044L226.4451133294539,17.689999961853044L226.64763551018456,17.689999961853044L226.67295078277587,17.689999961853044L226.79952714573253,17.689999961853044L226.90078823609784,17.689999961853044L227.1792562346025,17.689999961853044L227.30583259755915,17.689999961853044L227.3564631427418,17.689999961853044L227.40709368792446,17.689999961853044L227.6602464138378,17.689999961853044L227.73619223161177,17.689999961853044L227.7615075042031,17.689999961853044L227.78682277679442,17.689999961853044L227.86276859456842,17.689999961853044L228.11592132048176,17.689999961853044L228.3437587738037,17.689999961853044L228.39438931898638,17.689999961853044L228.4197045915777,17.689999961853044L228.4956504093517,17.689999961853044L228.54628095453435,17.689999961853044L228.62222677230832,17.689999961853044L228.748803135265,17.689999961853044L228.824748953039,17.689999961853044L229.00195586117832,17.689999961853044L229.02727113376963,17.689999961853044L229.1538474967263,17.689999961853044L229.20447804190897,17.689999961853044L229.25510858709163,17.689999961853044L229.63483767596156,17.689999961853044L229.91330567446622,17.689999961853044L230.36898058111018,17.689999961853044L230.41961112629284,17.689999961853044L230.49555694406683,17.689999961853044L230.59681803443215,17.689999961853044L230.7993402151628,17.689999961853044L230.9006013055281,17.689999961853044L230.9765471233021,17.689999961853044L231.10312348625877,17.689999961853044L231.22969984921542,17.689999961853044L231.40690675735473,17.689999961853044L231.6094289380854,17.689999961853044L231.81195111881604,17.689999961853044L231.9385274817727,17.689999961853044L232.09041911732066,17.689999961853044L232.115734389912,17.689999961853044L232.19168020768598,17.689999961853044L232.47014820619063,17.689999961853044L232.6979856595126,17.689999961853044L232.72330093210394,17.689999961853044L232.7739314772866,17.689999961853044L232.82456202246925,17.689999961853044L233.07771474838256,17.689999961853044L233.25492165652187,17.689999961853044L233.60933547280052,17.689999961853044L233.73591183575715,17.689999961853044L233.7612271083485,17.689999961853044L233.9890645616705,17.689999961853044L234.3434783779491,17.689999961853044L234.54600055867976,17.689999961853044L234.77383801200173,17.689999961853044L234.8497838297757,17.689999961853044L234.9763601927324,17.689999961853044L235.12825182828036,17.689999961853044L235.254828191237,17.689999961853044L235.38140455419367,17.689999961853044L235.58392673492432,17.689999961853044L235.65987255269832,17.689999961853044L235.73581837047232,17.689999961853044L235.86239473342894,17.689999961853044L235.93834055120294,17.689999961853044L236.06491691415962,17.689999961853044L236.16617800452494,17.689999961853044L236.2421238222989,17.689999961853044L236.29275436748156,17.689999961853044L236.41933073043822,17.689999961853044L236.44464600302956,17.689999961853044L236.59653763857756,17.689999961853044L236.67248345635156,17.689999961853044L236.74842927412553,17.689999961853044L236.77374454671687,17.689999961853044L237.0522125452215,17.689999961853044L237.1281583629955,17.689999961853044L237.35599581631746,17.689999961853044L237.5585179970481,17.689999961853044L237.73572490518745,17.689999961853044L237.93824708591808,17.689999961853044L238.11545399405742,17.689999961853044L238.1913998118314,17.689999961853044L238.39392199256204,17.689999961853044L238.49518308292735,17.689999961853044L238.59644417329267,17.689999961853044L238.621759445884,17.689999961853044L238.74833580884066,17.689999961853044L238.79896635402332,17.689999961853044L238.90022744438866,17.689999961853044L260.4182091470198,17.689999961853044L260.69667714552446,17.689999961853044L260.8232535084811,17.689999961853044L260.8991993262551,17.689999961853044L261.02577568921174,17.689999961853044L261.25361314253377,17.689999961853044L261.27892841512505,17.689999961853044L261.32955896030774,17.689999961853044L261.7092880491777,17.689999961853044L261.75991859436033,17.689999961853044L261.78523386695167,17.689999961853044L261.810549139543,17.689999961853044L261.93712550249967,17.689999961853044L262.038386592865,17.689999961853044L262.11433241063895,17.689999961853044L262.2155935010043,17.689999961853044L262.24090877359566,17.689999961853044L262.2915393187783,17.689999961853044L262.342169863961,17.689999961853044L262.46874622691763,17.689999961853044L262.51937677210026,17.689999961853044L262.62063786246557,17.689999961853044L262.64595313505697,17.689999961853044L263.00036695133554,17.689999961853044L263.10162804170085,17.689999961853044L263.2535196772489,17.689999961853044L263.30415022243153,17.689999961853044L263.3800960402055,17.689999961853044L263.4560418579795,17.689999961853044L263.5826182209362,17.689999961853044L263.60793349352747,17.689999961853044L263.65856403871015,17.689999961853044L263.7091945838928,17.689999961853044L264.0129778549888,17.689999961853044L264.31676112608477,17.689999961853044L264.3420763986761,17.689999961853044L264.64585966977205,17.689999961853044" fill="none"></path></g></g></g></g></g></g><g transform="translate(51, 176)" clip-path="url(#clip_1)"><clipPath id="clip_1"><rect width="278" height="23"></rect></clipPath><g><g><line x1="0" y1="0" x2="0" y2="5" style="visibility: inherit;" fill="rgb(0, 0, 0)" stroke="rgb(200, 195, 188)" stroke-width="1px"></line><line x1="25.31527259133079" y1="0" x2="25.31527259133079" y2="5" style="visibility: inherit;" fill="rgb(0, 0, 0)" stroke="rgb(200, 195, 188)" stroke-width="1px"></line><line x1="50.63054518266158" y1="0" x2="50.63054518266158" y2="5" style="visibility: inherit;" fill="rgb(0, 0, 0)" stroke="rgb(200, 195, 188)" stroke-width="1px"></line><line x1="75.94581777399236" y1="0" x2="75.94581777399236" y2="5" style="visibility: inherit;" fill="rgb(0, 0, 0)" stroke="rgb(200, 195, 188)" stroke-width="1px"></line><line x1="101.26109036532316" y1="0" x2="101.26109036532316" y2="5" style="visibility: inherit;" fill="rgb(0, 0, 0)" stroke="rgb(200, 195, 188)" stroke-width="1px"></line><line x1="126.57636295665394" y1="0" x2="126.57636295665394" y2="5" style="visibility: inherit;" fill="rgb(0, 0, 0)" stroke="rgb(200, 195, 188)" stroke-width="1px"></line><line x1="151.89163554798472" y1="0" x2="151.89163554798472" y2="5" style="visibility: inherit;" fill="rgb(0, 0, 0)" stroke="rgb(200, 195, 188)" stroke-width="1px"></line><line x1="177.20690813931552" y1="0" x2="177.20690813931552" y2="5" style="visibility: inherit;" fill="rgb(0, 0, 0)" stroke="rgb(200, 195, 188)" stroke-width="1px"></line><line x1="202.5221807306463" y1="0" x2="202.5221807306463" y2="5" style="visibility: inherit;" fill="rgb(0, 0, 0)" stroke="rgb(200, 195, 188)" stroke-width="1px"></line><line x1="227.8374533219771" y1="0" x2="227.8374533219771" y2="5" style="visibility: inherit;" fill="rgb(0, 0, 0)" stroke="rgb(200, 195, 188)" stroke-width="1px"></line><line x1="253.15272591330788" y1="0" x2="253.15272591330788" y2="5" style="visibility: inherit;" fill="rgb(0, 0, 0)" stroke="rgb(200, 195, 188)" stroke-width="1px"></line><line x1="278.4679985046387" y1="0" x2="278.4679985046387" y2="5" style="visibility: inherit;" fill="rgb(0, 0, 0)" stroke="rgb(200, 195, 188)" stroke-width="1px"></line></g><g transform="translate(0, 8)"><text style="text-anchor: middle; visibility: hidden; font-family: Roboto, sans-serif; font-size: 12px; font-weight: 200;" x="0" y="0" dx="0em" dy="0.95em" fill="rgb(232, 230, 227)" stroke="none" stroke-width="1px">-1k</text><text style="text-anchor: middle; visibility: inherit; font-family: Roboto, sans-serif; font-size: 12px; font-weight: 200;" x="25.31527259133079" y="0" dx="0em" dy="0.95em" fill="rgb(232, 230, 227)" stroke="none" stroke-width="1px">0</text><text style="text-anchor: middle; visibility: inherit; font-family: Roboto, sans-serif; font-size: 12px; font-weight: 200;" x="50.63054518266158" y="0" dx="0em" dy="0.95em" fill="rgb(232, 230, 227)" stroke="none" stroke-width="1px">1k</text><text style="text-anchor: middle; visibility: inherit; font-family: Roboto, sans-serif; font-size: 12px; font-weight: 200;" x="75.94581777399236" y="0" dx="0em" dy="0.95em" fill="rgb(232, 230, 227)" stroke="none" stroke-width="1px">2k</text><text style="text-anchor: middle; visibility: inherit; font-family: Roboto, sans-serif; font-size: 12px; font-weight: 200;" x="101.26109036532316" y="0" dx="0em" dy="0.95em" fill="rgb(232, 230, 227)" stroke="none" stroke-width="1px">3k</text><text style="text-anchor: middle; visibility: inherit; font-family: Roboto, sans-serif; font-size: 12px; font-weight: 200;" x="126.57636295665394" y="0" dx="0em" dy="0.95em" fill="rgb(232, 230, 227)" stroke="none" stroke-width="1px">4k</text><text style="text-anchor: middle; visibility: inherit; font-family: Roboto, sans-serif; font-size: 12px; font-weight: 200;" x="151.89163554798472" y="0" dx="0em" dy="0.95em" fill="rgb(232, 230, 227)" stroke="none" stroke-width="1px">5k</text><text style="text-anchor: middle; visibility: inherit; font-family: Roboto, sans-serif; font-size: 12px; font-weight: 200;" x="177.20690813931552" y="0" dx="0em" dy="0.95em" fill="rgb(232, 230, 227)" stroke="none" stroke-width="1px">6k</text><text style="text-anchor: middle; visibility: inherit; font-family: Roboto, sans-serif; font-size: 12px; font-weight: 200;" x="202.5221807306463" y="0" dx="0em" dy="0.95em" fill="rgb(232, 230, 227)" stroke="none" stroke-width="1px">7k</text><text style="text-anchor: middle; visibility: inherit; font-family: Roboto, sans-serif; font-size: 12px; font-weight: 200;" x="227.8374533219771" y="0" dx="0em" dy="0.95em" fill="rgb(232, 230, 227)" stroke="none" stroke-width="1px">8k</text><text style="text-anchor: middle; visibility: inherit; font-family: Roboto, sans-serif; font-size: 12px; font-weight: 200;" x="253.15272591330788" y="0" dx="0em" dy="0.95em" fill="rgb(232, 230, 227)" stroke="none" stroke-width="1px">9k</text><text style="text-anchor: middle; visibility: hidden; font-family: Roboto, sans-serif; font-size: 12px; font-weight: 200;" x="278.4679985046387" y="0" dx="0em" dy="0.95em" fill="rgb(232, 230, 227)" stroke="none" stroke-width="1px">10k</text></g><line x1="0" y1="0" x2="278.4679985046387" y2="0" fill="rgb(0, 0, 0)" stroke="rgb(200, 195, 188)" stroke-width="1px"></line></g></g></g></g></svg>